PathFileType	4	(X/Y/Z)	Patient4_TMGait_0pt7_01_right_09.trc.trc
DataRate	CameraRate	NumFrames	NumMarkers	Units	OrigDataRate	OrigDataStartFrame	OrigNumFrames
90.322580645161	90.322580645161	4	33	mm	90.322580645161	53	       141
Frame#	Time	Sacral			L.Shoulder			Chest			R.Shoulder			Neck			R.ASIS			L.ASIS			R.Thigh.Superior			R.Thigh.Lateral			R.Thigh.Inferior			R.Patella			L.Thigh.Superior			L.Thigh.Lateral			L.Thigh.Inferior			L.Patella			L.Shank.Superior			L.Shank.Lateral			L.Shank.Inferior			R.Shank.Superior			R.Shank.Lateral			R.Shank.Inferior			R.Heel			R.Midfoot.Superior			R.Midfoot.Lateral			R.Toe			L.Heel			L.Midfoot.Lateral			L.Midfoot.Superior			L.Toe			L.Elbow			L.Wrist			R.Elbow			R.Wrist			
		X1	Y1	Z1	X2	Y2	Z2	X3	Y3	Z3	X4	Y4	Z4	X5	Y5	Z5	X6	Y6	Z6	X7	Y7	Z7	X8	Y8	Z8	X9	Y9	Z9	X10	Y10	Z10	X11	Y11	Z11	X12	Y12	Z12	X13	Y13	Z13	X14	Y14	Z14	X15	Y15	Z15	X16	Y16	Z16	X17	Y17	Z17	X18	Y18	Z18	X19	Y19	Z19	X20	Y20	Z20	X21	Y21	Z21	X22	Y22	Z22	X23	Y23	Z23	X24	Y24	Z24	X25	Y25	Z25	X26	Y26	Z26	X27	Y27	Z27	X28	Y28	Z28	X29	Y29	Z29	X30	Y30	Z30	X31	Y31	Z31	X32	Y32	Z32	X33	Y33	Z33	

53	10.385714285714	791.072694600380	1010.123513535909	527.796929518284	967.823705585085	1430.450742748454	324.240000262287	1082.649791960238	1358.165818663385	477.081196566298	1018.630627661887	1438.278194667284	656.391239329570	986.188665453830	1493.979679316221	479.133981643550	1024.383770023995	945.665509792588	629.041717299679	990.219502971979	960.228986122332	356.552047806091	1051.663399187297	740.148156325563	599.927141233932	963.856968492150	636.329961675461	661.945750382826	1031.855504016472	579.655236224993	579.174970039657	1024.665406509586	493.634416899872	583.256034979236	1082.658042352145	790.797520404751	389.725850499013	1048.307721603328	663.110073437934	309.052282945668	1155.311319039804	606.766107943761	370.558521794397	1176.558096392607	520.495083723090	362.064783476623	1121.353909293733	447.474374865979	350.519324529898	989.995218137184	379.973422049685	302.822717998925	1007.236856496121	247.980205584383	349.744908842695	997.650395494820	405.832482835180	590.247753151915	926.251484473808	302.176295148191	650.943868153630	966.882570218956	207.629920008339	586.111682510368	830.100822404998	43.383226357612	557.304414504079	1002.205151645395	97.468698868216	591.083874452546	914.064445353786	37.132496029364	630.079917842461	1122.596968110669	41.651384233509	617.384372478212	837.162042115495	142.617805899794	390.397367110071	897.433346695550	117.409954380731	303.371899063244	1000.016614746127	143.530572214945	321.303714105275	1095.740500099370	52.570690107229	277.940146372981	936.883564178442	1073.201855559633	227.408006262347	1015.594820459212	826.479493297123	223.001444605178	1022.981160430554	1095.908846581562	795.944827698317	1219.149018570022	931.465861249617	748.862492720490	
54	10.396785714286	790.330868072137	1010.247401441752	528.957138477794	966.407573337187	1429.890880936127	324.250067166516	1082.166823724208	1357.834654294570	476.469959785069	1019.463282141903	1438.120570178287	656.237111239907	985.839989684490	1493.762534455375	479.081826571953	1024.119554503005	945.171527826764	628.661560269558	988.484443749774	960.361717514047	356.292340580100	1049.359657348325	739.230471520235	598.763353109581	961.166382513363	636.042490550409	661.855886174663	1027.800691895834	578.813666415609	578.601495675562	1019.823823491977	492.854889474553	582.888994967818	1081.956135021535	792.753329996804	389.715961439891	1048.790228320780	664.538085868483	309.021182087634	1156.192966595086	609.396685021916	370.532366381077	1179.186513007517	524.613234141109	361.903935321261	1127.716345068880	450.318959905352	350.125925675194	1001.058444526677	375.247244184728	301.679434558874	1026.087786670580	244.194264434471	348.621311799716	992.194841950484	405.140058574496	589.983955924166	920.339536039899	301.912935753116	650.835386345113	960.018162707713	207.161702942738	585.905423343286	822.271885068562	43.302399571864	557.319750987118	994.352755365427	97.366656539980	591.018827563776	906.266593320446	37.095816437780	630.145200818389	1114.771539641942	41.606795946038	617.435118139770	862.764184805498	128.303157385325	388.490426659676	924.883063090319	107.166561547184	301.717929819163	1025.558906433597	139.528403151210	320.109359137383	1126.983424542210	54.789531510223	277.162551453570	930.218141933533	1072.573851605558	229.002084390956	991.142447347712	820.889595921812	223.547064213577	1035.096892340504	1096.498342754837	795.854077868676	1242.074206044203	948.439373553548	743.910514782114	
55	10.407857142857	789.662271207765	1010.300484049952	529.909005382166	965.096331900937	1429.288273168372	324.164200270070	1081.750068468800	1357.451368934078	475.773648604045	1020.307587750712	1437.912279347371	655.985679587501	985.532478044805	1493.484469900921	478.949223275461	1023.881615537535	944.638903424744	628.208015334738	986.945921238979	960.409800128561	355.919422254510	1047.048660610282	738.261130980333	597.654910154351	958.422116664547	635.710874002608	661.750184904294	1023.726795975845	577.930915071618	578.043008294045	1014.964100750633	492.066646701812	582.539148295617	1081.031765107060	794.128705069870	389.587172114281	1048.738033711290	665.467017460653	308.866689787177	1156.280863975614	611.255969409452	370.571391622133	1180.904834389555	528.182042616757	361.891511420517	1133.305702685829	452.893394026711	349.935213447833	1012.210448413387	370.346087355035	300.249300262807	1044.848348447346	240.817861242376	347.618952832401	986.717605954851	404.446604661054	589.717514475475	914.429948638884	301.650821593475	650.749058839050	953.144493892803	206.703767681934	585.709714529130	814.444102857305	43.243396406803	557.338217353985	986.507678278868	97.250077584773	590.942763873513	898.475262408245	37.067968727342	630.221733708374	1106.951023879329	41.543064572570	617.482075604420	888.912887907569	114.809059127361	386.082315546692	953.092664071143	97.675977743334	300.014490501116	1051.293839670308	136.219767561862	319.300168068674	1158.192555936101	57.975673513443	277.652000275858	922.892470825467	1072.170614092577	230.246344153722	967.262052761496	817.128396092341	224.309981701341	1047.270974673879	1097.389028092730	795.304012447780	1263.711861968296	966.544571519023	738.577129039287	
56	10.418928571429	789.092452310121	1010.294794480951	530.643649029258	963.903383627196	1428.669690514412	323.979709637431	1081.408262838629	1357.024576637228	474.984866522401	1021.179144437504	1437.672175197720	655.623787358911	985.287449142710	1493.160481581865	478.724578900980	1023.672001135114	944.083034713263	627.686607451949	985.618768405355	960.366631555253	355.444716263618	1044.726408110299	737.246177754345	596.652047977604	955.581778916659	635.347739620949	661.632760213677	1019.619050035993	577.013843991880	577.531053669781	1010.062814548222	491.279206721850	582.218904651040	1079.893282321548	794.918776123120	389.352281770418	1048.195852523998	665.921350371019	308.539150362847	1155.615143509961	612.349661467040	370.654215549536	1181.754594260687	531.194323988861	362.010669786771	1138.113769414382	455.208845307281	349.932200978548	1023.375863599503	365.426232862561	298.579376788943	1063.326919612163	237.994745952358	346.784977490962	981.193431266682	403.768438737862	589.459387526371	908.492194310844	301.405277164353	650.686082106259	946.252295524507	206.269594509731	585.531795622935	806.619681820907	43.210264773289	557.362458691342	978.673595431187	97.126552619525	590.863093696399	890.688240491545	37.052865181245	630.310784582691	1099.136326958467	41.465585500032	617.527751491847	915.326483218572	102.407091859370	383.297220953927	981.768741666380	89.188640341368	298.368422738364	1076.947113587285	133.778894907999	318.927795194106	1189.029278764922	62.261103089574	279.440175047337	914.878771365076	1072.076268628674	231.136071057735	944.205857365265	815.014406279871	225.288952428483	1059.479090018733	1098.598545298529	794.268330951905	1283.945218929537	985.586167576741	732.921730138387	
